<svg width="132" height="123" viewBox="0 0 132 123" fill="none" xmlns="http://www.w3.org/2000/svg">
<path d="M0 79.8261C-1.1593e-06 87.4037 5.26784 94.671 14.6447 100.029C24.0215 105.387 36.7392 108.398 50 108.398C63.2608 108.398 75.9785 105.387 85.3553 100.029C94.7322 94.671 100 87.4037 100 79.8261L0 79.8261Z" fill="#CEE3FF"/>
<path d="M0 60.5715L100 59.9503V80.4472H0L0 60.5715Z" fill="#CEE3FF"/>
<ellipse cx="50" cy="60.5714" rx="50" ry="28.5714" fill="#336BB7"/>
<ellipse cx="50.3107" cy="56.8447" rx="21.7391" ry="12.4224" fill="#CEE3FF"/>
<path d="M88 83C82.8957 86.0707 76.2686 88.6515 69 90.2V101C76.2686 99.4515 82.8957 96.8707 88 93.8V83Z" fill="#336BB7" stroke="#336BB7"/>
<line x1="11.4656" y1="26.8178" x2="20.4656" y2="49.8178" stroke="#191717"/>
<line x1="67.4583" y1="16.1998" x2="50.4583" y2="55.1998" stroke="#191717"/>
<line x1="79.4111" y1="94.7154" x2="88.4111" y2="107.715" stroke="#191717"/>
<path d="M88.64 123V122.008C89.0773 121.603 89.5573 121.16 90.08 120.68C90.6027 120.195 91.12 119.696 91.632 119.184C92.1493 118.667 92.6213 118.157 93.048 117.656C93.4747 117.149 93.816 116.672 94.072 116.224C94.3333 115.771 94.464 115.371 94.464 115.024C94.464 114.603 94.36 114.219 94.152 113.872C93.9493 113.52 93.6747 113.24 93.328 113.032C92.9867 112.819 92.6053 112.712 92.184 112.712C91.7627 112.712 91.376 112.819 91.024 113.032C90.6773 113.24 90.4 113.52 90.192 113.872C89.984 114.219 89.88 114.603 89.88 115.024H88.76C88.76 114.384 88.9147 113.805 89.224 113.288C89.5387 112.771 89.9547 112.36 90.472 112.056C90.9893 111.747 91.56 111.592 92.184 111.592C92.808 111.592 93.376 111.747 93.888 112.056C94.4053 112.365 94.816 112.779 95.12 113.296C95.4293 113.813 95.584 114.389 95.584 115.024C95.584 115.403 95.4827 115.819 95.28 116.272C95.0827 116.72 94.8133 117.187 94.472 117.672C94.1307 118.152 93.7467 118.637 93.32 119.128C92.8933 119.619 92.448 120.099 91.984 120.568C91.52 121.032 91.0693 121.469 90.632 121.88H95.752V123H88.64Z" fill="#191717"/>
<path d="M72.928 15.208C72.2453 15.208 71.6453 15.0587 71.128 14.76C70.6107 14.456 70.2053 14.0507 69.912 13.544C69.624 13.0373 69.48 12.4773 69.48 11.864H70.6C70.6 12.2693 70.6933 12.6427 70.88 12.984C71.072 13.32 71.3413 13.5893 71.688 13.792C72.0347 13.9893 72.448 14.088 72.928 14.088C73.3333 14.088 73.712 13.9893 74.064 13.792C74.4213 13.5893 74.7093 13.32 74.928 12.984C75.152 12.6427 75.264 12.2693 75.264 11.864C75.264 11.3573 75.136 10.936 74.88 10.6C74.624 10.2587 74.272 10.0053 73.824 9.84C73.376 9.66933 72.864 9.584 72.288 9.584V8.656C73.0827 8.656 73.72 8.488 74.2 8.152C74.6853 7.81067 74.928 7.312 74.928 6.656C74.928 6.29867 74.8293 5.97333 74.632 5.68C74.44 5.38667 74.1867 5.152 73.872 4.976C73.5627 4.79467 73.2293 4.704 72.872 4.704C72.5147 4.704 72.1707 4.79467 71.84 4.976C71.5147 5.152 71.248 5.38667 71.04 5.68C70.8373 5.97333 70.736 6.29867 70.736 6.656H69.616C69.616 6.23467 69.704 5.84 69.88 5.472C70.056 5.09867 70.296 4.77067 70.6 4.488C70.904 4.20533 71.2507 3.984 71.64 3.824C72.0293 3.664 72.4373 3.584 72.864 3.584C73.424 3.584 73.944 3.72267 74.424 4C74.9093 4.27733 75.3013 4.648 75.6 5.112C75.8987 5.576 76.048 6.09067 76.048 6.656C76.048 7.20533 75.9067 7.70133 75.624 8.144C75.3413 8.58667 74.96 8.89867 74.48 9.08C74.896 9.21867 75.2453 9.42933 75.528 9.712C75.8107 9.98933 76.024 10.312 76.168 10.68C76.312 11.048 76.384 11.4427 76.384 11.864C76.384 12.4773 76.224 13.0373 75.904 13.544C75.584 14.0507 75.16 14.456 74.632 14.76C74.1093 15.0587 73.5413 15.208 72.928 15.208Z" fill="#191717"/>
<path d="M2.84 23V12.92H1.64L1.96 11.8H3.96V23H2.84Z" fill="#191717"/>
</svg>
